<mxfile host="app.diagrams.net" modified="2024-01-15T06:27:23.971Z" agent="Mozilla/5.0 (Macintosh; Intel Mac OS X 10_15_7) AppleWebKit/537.36 (KHTML, like Gecko) Chrome/119.0.0.0 Safari/537.36" etag="9k6aAk3ofHKCJCU-tkaa" version="22.1.16" type="device">
  <diagram name="Page-1" id="KnO11QCJ4pQ3pqWEPkvM">
    <mxGraphModel dx="869" dy="510" grid="1" gridSize="10" guides="1" tooltips="1" connect="1" arrows="1" fold="1" page="1" pageScale="1" pageWidth="827" pageHeight="1169" math="0" shadow="0">
      <root>
        <mxCell id="0" />
        <mxCell id="1" parent="0" />
        <mxCell id="deMX5QFm6ayM9yif3RuG-9" value="Librarian" style="shape=umlActor;verticalLabelPosition=bottom;verticalAlign=top;html=1;outlineConnect=0;" vertex="1" parent="1">
          <mxGeometry x="150" y="220" width="30" height="60" as="geometry" />
        </mxCell>
        <mxCell id="deMX5QFm6ayM9yif3RuG-10" value="Add members" style="ellipse;whiteSpace=wrap;html=1;" vertex="1" parent="1">
          <mxGeometry x="320" y="120" width="120" height="80" as="geometry" />
        </mxCell>
        <mxCell id="deMX5QFm6ayM9yif3RuG-11" value="Issue book" style="ellipse;whiteSpace=wrap;html=1;" vertex="1" parent="1">
          <mxGeometry x="320" y="230" width="120" height="80" as="geometry" />
        </mxCell>
        <mxCell id="deMX5QFm6ayM9yif3RuG-12" value="Return book" style="ellipse;whiteSpace=wrap;html=1;" vertex="1" parent="1">
          <mxGeometry x="320" y="330" width="120" height="80" as="geometry" />
        </mxCell>
        <mxCell id="deMX5QFm6ayM9yif3RuG-13" value="Display all book borrowed" style="ellipse;whiteSpace=wrap;html=1;" vertex="1" parent="1">
          <mxGeometry x="320" y="440" width="120" height="80" as="geometry" />
        </mxCell>
        <mxCell id="deMX5QFm6ayM9yif3RuG-14" value="Pay late fee" style="ellipse;whiteSpace=wrap;html=1;" vertex="1" parent="1">
          <mxGeometry x="520" y="350" width="120" height="80" as="geometry" />
        </mxCell>
        <mxCell id="deMX5QFm6ayM9yif3RuG-15" value="" style="endArrow=classic;html=1;rounded=0;" edge="1" parent="1">
          <mxGeometry width="50" height="50" relative="1" as="geometry">
            <mxPoint x="520" y="380" as="sourcePoint" />
            <mxPoint x="440" y="369.5" as="targetPoint" />
          </mxGeometry>
        </mxCell>
        <mxCell id="deMX5QFm6ayM9yif3RuG-16" value="" style="endArrow=none;html=1;rounded=0;" edge="1" parent="1" source="deMX5QFm6ayM9yif3RuG-9">
          <mxGeometry width="50" height="50" relative="1" as="geometry">
            <mxPoint x="190" y="260" as="sourcePoint" />
            <mxPoint x="330" y="280" as="targetPoint" />
          </mxGeometry>
        </mxCell>
        <mxCell id="deMX5QFm6ayM9yif3RuG-17" value="" style="endArrow=none;html=1;rounded=0;" edge="1" parent="1" source="deMX5QFm6ayM9yif3RuG-9">
          <mxGeometry width="50" height="50" relative="1" as="geometry">
            <mxPoint x="190" y="230" as="sourcePoint" />
            <mxPoint x="320" y="160" as="targetPoint" />
          </mxGeometry>
        </mxCell>
        <mxCell id="deMX5QFm6ayM9yif3RuG-18" value="" style="endArrow=none;html=1;rounded=0;" edge="1" parent="1" source="deMX5QFm6ayM9yif3RuG-9">
          <mxGeometry width="50" height="50" relative="1" as="geometry">
            <mxPoint x="270" y="520" as="sourcePoint" />
            <mxPoint x="320" y="470" as="targetPoint" />
          </mxGeometry>
        </mxCell>
        <mxCell id="deMX5QFm6ayM9yif3RuG-19" value="" style="endArrow=none;html=1;rounded=0;" edge="1" parent="1" source="deMX5QFm6ayM9yif3RuG-9">
          <mxGeometry width="50" height="50" relative="1" as="geometry">
            <mxPoint x="230" y="460" as="sourcePoint" />
            <mxPoint x="320" y="370" as="targetPoint" />
            <Array as="points">
              <mxPoint x="300" y="360" />
            </Array>
          </mxGeometry>
        </mxCell>
      </root>
    </mxGraphModel>
  </diagram>
</mxfile>
